<?xml version="1.0" standalone="no"?>
<!DOCTYPE svg PUBLIC "-//W3C//DTD SVG 20010904//EN"
 "http://www.w3.org/TR/2001/REC-SVG-20010904/DTD/svg10.dtd">
<svg version="1.0" xmlns="http://www.w3.org/2000/svg"
 width="70.000000pt" height="70.000000pt" viewBox="0 0 70.000000 70.000000"
 preserveAspectRatio="xMidYMid meet">
<metadata>
Created by potrace 1.11, written by Peter Selinger 2001-2013
</metadata>
<g transform="translate(0.000000,70.000000) scale(0.100000,-0.100000)"
fill="#000000" stroke="none">
<path d="M343 694 c3 -4 -30 -78 -74 -165 -43 -87 -79 -161 -79 -164 0 -3 26
-5 58 -3 56 3 57 3 77 45 11 24 23 43 26 43 3 0 36 -62 74 -139 l68 -138 49
-2 c28 0 54 1 58 4 9 5 -245 525 -256 525 -4 0 -5 -3 -1 -6z"/>
<path d="M95 178 c-37 -79 -66 -145 -64 -148 6 -7 640 -7 644 0 2 4 -6 27 -18
53 l-22 46 -223 1 -223 0 23 43 23 42 93 -1 c50 -1 92 2 92 7 0 5 -10 29 -22
54 l-22 45 -106 0 -106 0 -69 -142z"/>
</g>
</svg>
